<svg xmlns="http://www.w3.org/2000/svg" viewBox="-1.5 -80 283.6 122.05" width="850.8" height="366.15" role="img" aria-labelledby="t">
  <title id="t">drover</title>
  <style>
    .w { fill: #1f2937; }
    .ws { stroke: #1f2937; }
    @media (prefers-color-scheme: dark) { .w { fill: #e5e7eb; } .ws { stroke: #e5e7eb; } }
  </style>
  <path class="w" d="M39.8 -8.7H39.3Q37.9 -4.2 34 -1.5Q30.1 1.2 24.9 1.2Q15 1.2 9.75 -5.9Q4.5 -13 4.5 -26.2Q4.5 -39.3 9.75 -46.35Q15 -53.4 24.9 -53.4Q30.1 -53.4 34 -50.75Q37.9 -48.1 39.3 -43.6H39.8V-74H52.6V0H39.8ZM29 -9.4Q33.6 -9.4 36.7 -11.6Q39.8 -13.8 39.8 -17.9V-34.5Q39.8 -38.3 36.7 -40.6Q33.6 -42.9 29 -42.9Q24 -42.9 20.95 -39.55Q17.9 -36.2 17.9 -30.6V-21.6Q17.9 -16 20.95 -12.7Q24 -9.4 29 -9.4Z M62.4 0V-52.2H75.2V-41.4H75.7Q76.2 -43.5 77.25 -45.45Q78.3 -47.4 80 -48.9Q81.7 -50.4 84.05 -51.3Q86.4 -52.2 89.5 -52.2H92.3V-40.1H88.3Q81.8 -40.1 78.5 -38.2Q75.2 -36.3 75.2 -32V0Z M159.2 0 141.8 -52.2H154.4L161.7 -29.7L166.8 -11.1H167.5L172.6 -29.7L179.7 -52.2H191.9L174.4 0Z M216.5 1.2Q210.7 1.2 206.15 -0.75Q201.6 -2.7 198.45 -6.25Q195.3 -9.8 193.6 -14.85Q191.9 -19.9 191.9 -26.2Q191.9 -32.4 193.55 -37.4Q195.2 -42.4 198.3 -45.95Q201.4 -49.5 205.9 -51.45Q210.4 -53.4 216.1 -53.4Q222.2 -53.4 226.7 -51.3Q231.2 -49.2 234.1 -45.6Q237 -42 238.45 -37.25Q239.9 -32.5 239.9 -27.1V-22.9H205.2V-21.6Q205.2 -15.9 208.4 -12.45Q211.6 -9 217.9 -9Q222.7 -9 225.75 -11Q228.8 -13 231.2 -16.1L238.1 -8.4Q234.9 -3.9 229.35 -1.35Q223.8 1.2 216.5 1.2ZM216.3 -43.8Q211.2 -43.8 208.2 -40.4Q205.2 -37 205.2 -31.6V-30.8H226.6V-31.7Q226.6 -37.1 223.95 -40.45Q221.3 -43.8 216.3 -43.8Z M246.2 0V-52.2H259V-41.4H259.5Q260 -43.5 261.05 -45.45Q262.1 -47.4 263.8 -48.9Q265.5 -50.4 267.85 -51.3Q270.2 -52.2 273.3 -52.2H276.1V-40.1H272.1Q265.6 -40.1 262.3 -38.2Q259 -36.3 259 -32V0Z"/>
  <g fill="none" stroke="#f59e0b" stroke-width="12.73" stroke-linecap="round" stroke-linejoin="round">
    <ellipse cx="117.45" cy="-26.1" rx="17.55" ry="22.15"/>
    <path d="M110.88 -5.56 C109.88 12.44 101.9 26.05 87.9 26.05"/>
  </g>
</svg>
